<?xml version="1.0" encoding="utf-8"?>
<!-- Generator: Adobe Illustrator 19.0.0, SVG Export Plug-In . SVG Version: 6.00 Build 0)  -->
<svg version="1.1" id="圖層_1" xmlns="http://www.w3.org/2000/svg" xmlns:xlink="http://www.w3.org/1999/xlink" x="0px" y="0px"
	 viewBox="45 -33.8 150 150" style="enable-background:new 45 -33.8 150 150;" xml:space="preserve">
<style type="text/css">
	.st0{enable-background:new    ;}
	.st1{fill:#DC6200;}
</style>
<g class="st0">
	<path d="M182.8,5.2l1.8-2.9c-3.5-4.6-7.2-8.7-11.3-12.2l-8.5,11.3H93.3c2.5-6,5-12.8,7.5-20.3c4.7-0.4,7-1.5,7-3.1
		c0-2.5-5-4.8-15.1-6.7C85.9-0.1,74.5,24.4,58.5,44.7l3,2.4c13-12.9,23.1-26.9,30.1-41.9h18.3v0.1h9.3V5.2H182.8z"/>
	<path class="st1" d="M109.9,105.2h9.3V65.4h56.5l1.8-3c-2.9-4.2-6.1-8.1-9.7-11.6l-8.1,10.8h-40.5v-28h52.4l1.8-2.9
		c-2.2-3.3-5.4-7-9.6-10.9l-7.5,10h-37.1V5.2h-9.3V105.2z"/>
</g>
</svg>
