<?xml version="1.0" encoding="utf-8"?>
<!-- Generator: Adobe Illustrator 19.0.0, SVG Export Plug-In . SVG Version: 6.00 Build 0)  -->
<svg version="1.1" id="圖層_1" xmlns="http://www.w3.org/2000/svg" xmlns:xlink="http://www.w3.org/1999/xlink" x="0px" y="0px"
	 viewBox="45 -33.8 150 150" style="enable-background:new 45 -33.8 150 150;" xml:space="preserve">
<style type="text/css">
	.st0{enable-background:new    ;}
	.st1{fill:#DC6200;}
</style>
<g class="st0">
	<path d="M142.9,13.9l1.5,3.7h24.8v7.8h8.1v-38.7l3.9-3c0.6-0.4,1-0.9,1-1.5c0-1.4-3-4.5-8.9-9.2l-5.7,7h-24l1.6,3.7h24v30H142.9z"
		/>
	<path d="M93.6-24c0-2.1-4.7-4.2-14-6.2c-5.5,30.9-15.5,59-29.9,84.3l3.1,2.1c7.2-10.5,13.2-21,18-31.3v80.4h8.6V17.5
		c4.2-1.4,6.3-2.7,6.3-3.9c0-1.6-2.8-2.9-8.4-4c3.4-9,6.6-19.2,9.6-30.5C91.3-21.7,93.6-22.7,93.6-24z"/>
	<path d="M107,17.6h21.4v7.8h8.1v-38.7l3.4-2.6c0.7-0.4,1-0.9,1-1.6c0-1.4-2.8-4.5-8.4-9.2l-5.3,6.7h-19.7c-3.2-1.9-6.3-3.6-9.2-5.1
		v47.2c2.9,0,5.7,0,8.6,0V17.6z M107-16.1h21.4v30H107V-16.1z"/>
	<path d="M164.6,76.4c5.7-8.3,10-18.8,12.9-31.2l4.3-2.6c0.7-0.4,1.1-0.8,1.1-1.3c0-1.5-3-4.8-8.9-9.7l-5.7,6.7H137l2,3.7h3.2
		c3.2,13.4,7.5,24.8,13,34.1c-7.8,10.9-18,19.5-30.8,25.9l2.2,3.1c13.8-5.1,24.9-12.5,33.2-22.2c5.8,7.8,13.5,14.6,23,20.6
		c1.7-3.3,3.8-6,6.4-8.1C179.7,90.6,171.5,84.3,164.6,76.4z M159.5,69.7c-4.9-7-9.1-16.2-12.6-27.6h22.5
		C167.2,52.2,163.9,61.4,159.5,69.7z"/>
	<path class="st1" d="M131.4,64l-6.7,8.9H107v-25h28.1l1.7-3c-0.4-0.4-6.4-9-7.3-9.7l-6.3,9H107V22.2c-2.8,0-5.7,0-8.6,0v83h8.6
		V76.6h31l1.7-3C137.6,70.4,134.8,67.2,131.4,64z"/>
</g>
</svg>
