<?xml version="1.0" encoding="utf-8"?>
<!-- Generator: Adobe Illustrator 19.0.0, SVG Export Plug-In . SVG Version: 6.00 Build 0)  -->
<svg version="1.1" id="圖層_1" xmlns="http://www.w3.org/2000/svg" xmlns:xlink="http://www.w3.org/1999/xlink" x="0px" y="0px"
	 viewBox="45 -33.8 150 150" style="enable-background:new 45 -33.8 150 150;" xml:space="preserve">
<style type="text/css">
	.st0{enable-background:new    ;}
	.st1{fill:#DC6200;}
</style>
<g class="st0">
	<path d="M97.4-28.1V1.4H55.5l1.3,3.7h40.5v24.3H58.8l1.6,3.7h36.9v12.3c0,3.2-0.2,6-0.6,8.6c-13,3.6-27.5,6.6-43.5,9
		c2.5,9,4.7,13.5,6.6,13.5c1.2,0,2.3-2,3.1-6c8.3-2.1,19.1-5.2,32.5-9.6c-4.9,18.5-17.6,32.2-38.1,40.9l2.3,3.4
		c26.1-8.5,41.4-24.5,45.8-47.8l0.7-6c0.2-3.2,0.3-5.4,0.3-6.4V-20c4.3-1.6,6.4-3.1,6.4-4.3C113-26.7,107.8-27.9,97.4-28.1z"/>
	<path d="M176.5,50.1l-8.6,10.6h-28.6V47.1h-9.2v56.1h9.2V64.4h46.4l1.8-3C184,57.2,180.4,53.4,176.5,50.1z"/>
	<path class="st1" d="M139.3,33.2h39.2l1.5-3c-2.4-3-5.7-6.6-9.9-10.6l-8,9.9h-22.8V5.2h44.4l1.5-3.1c-3-3.4-6.6-7-10.8-10.8
		l-7.6,10.2h-27.5v-22c4.1-1.5,6.2-2.9,6.2-4.2c0-2.5-5.1-3.8-15.3-4v75.8h9.2V33.2z"/>
</g>
</svg>
