<?xml version="1.0" encoding="utf-8"?>
<!-- Generator: Adobe Illustrator 19.0.0, SVG Export Plug-In . SVG Version: 6.00 Build 0)  -->
<svg version="1.1" id="圖層_1" xmlns="http://www.w3.org/2000/svg" xmlns:xlink="http://www.w3.org/1999/xlink" x="0px" y="0px"
	 viewBox="45 -33.8 150 150" style="enable-background:new 45 -33.8 150 150;" xml:space="preserve">
<style type="text/css">
	.st0{enable-background:new    ;}
	.st1{fill:#DC6200;}
</style>
<g class="st0">
	<path d="M145.5,85.9V61.4l3.7-2.3c0.8-0.5,1.2-1,1.2-1.6c0-1.6-3-4.5-8.9-8.7l-5.3,6h-33.4c-3.8-1.8-7.1-3.3-10-4.5v38.5h8.4v-8.3
		h36v5.3H145.5z M101.3,76.8V58.6h36v18.2H101.3z"/>
	<polygon class="st1" points="100.4,25.8 139.8,25.8 139.8,22 100.4,22 100.4,9.7 139.8,9.7 139.8,6 100.4,6 100.4,-5.6 91.9,-5.6 
		91.9,38.8 100.4,38.8 	"/>
	<path d="M182.3-5.6l1.5-2.7c-4.4-5-8-8.7-10.8-11.1l-7.7,10h-41.5v-12.5c4.3-1.3,6.4-2.6,6.4-3.9c0-2.2-5-3.4-15-3.6v19.9H56.7
		l1.5,3.7h33.8v0h8.4v0h39.4V6h0v3.7h0V22h0v3.7h0v13h-39.4v0h-8.4v0H74.7c-4.9-2.4-8.3-3.9-10.2-4.6v71h8.7V42.5h93.6v44.9
		c0,3-1.9,4.5-5.7,4.5c-6.4,0-13.5-0.3-21-0.9v3.9c7.6,0.7,12.8,1.6,15.5,2.7c3.3,1,5,3,5.1,5.8c10,0.2,15-4,15-12.5V46l3.7-2.4
		c1-0.5,1.5-1.2,1.5-1.9c0-1.3-3.3-4.5-10-9.6l-5.7,6.7h-17.1V-5.6H182.3z"/>
</g>
</svg>
