<?xml version="1.0" encoding="utf-8"?>
<!-- Generator: Adobe Illustrator 19.0.0, SVG Export Plug-In . SVG Version: 6.00 Build 0)  -->
<svg version="1.1" id="圖層_1" xmlns="http://www.w3.org/2000/svg" xmlns:xlink="http://www.w3.org/1999/xlink" x="0px" y="0px"
	 viewBox="45 -33.8 150 150" style="enable-background:new 45 -33.8 150 150;" xml:space="preserve">
<style type="text/css">
	.st0{enable-background:new    ;}
	.st1{fill:#DC6200;}
</style>
<g class="st0">
	<polygon class="st1" points="105.2,15 96.8,15 96.8,91.7 105.2,91.7 105.2,68.2 132.6,68.2 132.6,64.5 105.2,64.5 105.2,41.4 
		132.6,41.4 132.6,37.6 105.2,37.6 	"/>
	<path d="M185.6-12.5l1.7-3l-1.8-2.1c-2.8-3.1-5.9-6.1-9.4-9.2l-8.1,10.5H52.7l1,3.7h58.4c-1,7.2-2.7,15.1-5.1,23.7H74.7
		c-4.2-2-7.7-3.5-10.5-4.5v98.5h8.9v-9.6h92.5v9.6h8.7V17.9l3.7-2.4c1-0.6,1.5-1.3,1.5-2.1c0-1.3-3.2-4.4-9.7-9.4l-5.7,7.2h-52.6
		c4.6-7.4,8.9-15.3,12.7-23.7H185.6z M141.2,14.9h24.5v77h-24.5V14.9z M132.6,14.9v22.7h0v3.7h0v23.1h0v3.7h0v23.7h-27.4v-0.2h-8.4
		v0.2H73.1v-77h23.7V15h8.4v-0.1H132.6z"/>
</g>
</svg>
