<?xml version="1.0" encoding="utf-8"?>
<!-- Generator: Adobe Illustrator 19.0.0, SVG Export Plug-In . SVG Version: 6.00 Build 0)  -->
<svg version="1.1" id="圖層_1" xmlns="http://www.w3.org/2000/svg" xmlns:xlink="http://www.w3.org/1999/xlink" x="0px" y="0px"
	 viewBox="45 -33.8 150 150" style="enable-background:new 45 -33.8 150 150;" xml:space="preserve">
<style type="text/css">
	.st0{enable-background:new    ;}
	.st1{fill:#DC6200;}
</style>
<g class="st0">
	<path class="st1" d="M137.4,20.8h35.4l1.8-2.7c-1.9-1.8-4.1-3.5-6.6-5.3c-0.4-0.3-0.9-0.7-1.4-1l-5.7,5.3h-25.3L137.4,20.8z"/>
	<path d="M74.9-2.1h93v4h7.8v-17.5l3.6-2.1c0.8-0.5,1.2-1,1.2-1.5c0-1.5-2.9-4.3-8.7-8.3l-4.9,5.7h-90c-2.9-1.4-6.4-2.8-10.4-4.3V23
		c0,34.5-5.3,61.1-15.9,79.8l3.3,2.4c14-17.6,21-45.1,21-82.5V-2.1z M74.9-18h93v12.2h-93V-18z"/>
	<path class="st1" d="M174.3,8c-2.4-2.1-4.3-3.7-5.7-4.8c-0.5-0.4-1.1-0.8-1.8-1.2c-0.6-0.5-1-0.8-1.1-0.9l-5.3,5.6h-24.9l2.1,3.7
		h34.8L174.3,8z"/>
	<path d="M176.5,49l-4.8,5.3h-65.8c2.4-2.5,4.4-5.1,6-7.6h51.6v2.9h7.8V33.9l3.1-1.7c0.8-0.5,1.2-1,1.2-1.5c0-1.4-2.8-3.8-8.3-7.3
		l-4.9,4.8H91.4c-1.5-0.7-4.7-1.8-9.7-3.4v26.5h8v-4.6h12.1c-6.6,10.8-17.3,20-32.1,27.6l2,3c5.8-2.2,11.3-5,16.5-8.3v16.3h7.6v-4
		h21.6v10.3c-4.8,0.2-14.8,0.4-30,0.6h-6.7c1.8,8.1,3.6,12.2,5.6,12.2c1.1,0,2.1-1.8,3.1-5.3c19.1-0.9,38-2.6,56.8-5.1
		c1.2,1.5,2.2,3.1,2.9,4.6c1.4,2.6,2.7,3.9,4,3.9c2.4,0,3.9-1.3,4.4-3.9c3.4,1,5.1,3.1,5.3,6.3c6.9-0.1,11.5-3.3,13.8-9.6
		c2.1-5.7,3.3-17.3,3.7-34.8l3-1.7c1.1-0.6,1.6-1.2,1.6-1.8C184.8,55.8,182,53.1,176.5,49z M143.1,32.1h20.3v11h-20.3V32.1z
		 M116,32.1h19.5v11H116V32.1z M89.6,43v-11h18.7v11H89.6z M117.3,77.8H95.7v-7.5h21.6V77.8z M117.3,66.6H96.9
		C96,66,95,65.5,93.9,65c2.5-1.8,5.2-4.1,8.2-6.9h15.2V66.6z M169.9,88.3c-1.1,4.5-3.7,6.7-8,6.7c-1.1,0-3-0.1-5.6-0.4
		c-2.7-4.5-8.8-8.2-18.4-11.2l-1.7,2.6c2.4,1.4,4.6,3,6.4,4.7l-2.4,0.1c-1.3,0-3.4,0.1-6.2,0.3c-4.4,0.2-7.5,0.3-9.3,0.4V81.4H148
		v2.7h7.5v-12l2.7-1.8c0.7-0.4,1-0.9,1-1.5c0-1.3-2.6-3.6-7.9-7l-4.4,4.7h-22v-2.9c3.4-0.7,5.1-1.5,5.1-2.4c0-1.2-3-2.3-9-3.1h51.3
		C172.2,71.7,171.4,81.8,169.9,88.3z M124.9,77.8v-7.5H148v7.5H124.9z"/>
	<path class="st1" d="M116.1,7.9c-1.8-1.8-4.1-3.7-6.7-5.8l-1.2-1l-5.3,5.6h-24l1.5,3.7H114L116.1,7.9z"/>
	<path class="st1" d="M80.1,20.8h34.5l1.8-2.6c-3-2.8-5.7-5-8.1-6.4l-5.5,5.3H78.6L80.1,20.8z"/>
	<path class="st1" d="M129.2,7.7c3.6-1.2,5.4-2.4,5.4-3.4c0-1.9-4.3-3-12.9-3.5v23.9h7.5V7.7z"/>
</g>
</svg>
