<?xml version="1.0" encoding="utf-8"?>
<!-- Generator: Adobe Illustrator 19.0.0, SVG Export Plug-In . SVG Version: 6.00 Build 0)  -->
<svg version="1.1" id="圖層_1" xmlns="http://www.w3.org/2000/svg" xmlns:xlink="http://www.w3.org/1999/xlink" x="0px" y="0px"
	 viewBox="45 -33.8 150 150" style="enable-background:new 45 -33.8 150 150;" xml:space="preserve">
<style type="text/css">
	.st0{enable-background:new    ;}
	.st1{fill:#DC6200;}
</style>
<g class="st0">
	<path d="M76.6,4.7H165v4.5h8.3V-14l3.1-2c1-0.5,1.5-1.2,1.5-1.9c0-1.3-3-4.3-8.9-9l-5.5,6.6H77.7c-1.6-0.8-4.9-2.2-9.9-4.2v47.7
		c0,34.5-5.3,61.2-15.9,80.1l3.4,2.1c14.2-17.8,21.3-45,21.3-81.6V4.7z M76.6-16.6H165V1H76.6V-16.6z"/>
	<path class="st1" d="M165,17.5h-22.3l2,3.7h33.3l1.4-2.7c-3.2-3.2-6-5.7-8.4-7.3L165,17.5z"/>
	<path class="st1" d="M165.1,32.8h-22.3l1.8,3.7h33.7l1.5-2.6c-3.8-3.7-6.6-6.3-8.4-7.8L165.1,32.8z"/>
	<path class="st1" d="M111.7,26.8l-5.9,6H83.2l1.5,3.7H118l1.5-2.4C117.2,31.3,114.6,28.9,111.7,26.8z"/>
	<path d="M175.4,69.3l-7.9,9.2h-34.1V62.5h39.3l1.8-2.7c-2.8-3.2-6.1-6.5-10-9.7l-7,8.7h-24v-9c4-1.3,6-2.6,6-3.7
		c0-1.9-4.8-3.1-14.4-3.7v16.5h-24c1.3-2,2.7-4.7,4.4-8.1c4.1-0.4,6.2-1.3,6.2-2.5c0-2-4.2-4.1-12.6-6.3c-3.8,13-9.6,23.6-17.4,31.7
		l2.7,2.6c5.2-3.5,9.9-8,14.3-13.6h26.5v15.9H75.4l1.4,3.7h48.3v23.1h8.4V82.2h50.2l1.8-2.9C183.5,76.7,180.2,73.4,175.4,69.3z"/>
	<path class="st1" d="M111.4,11l-5.7,6.4H83.1l1.5,3.7H118l1.5-2.6C117.6,16.3,114.9,13.7,111.4,11z"/>
	<path class="st1" d="M133.6,15.4c3.8-1.4,5.7-2.6,5.7-3.6c0-2.1-4.7-3.1-14.1-3.3v30.6h8.4V15.4z"/>
</g>
</svg>
