<?xml version="1.0" encoding="utf-8"?>
<!-- Generator: Adobe Illustrator 19.0.0, SVG Export Plug-In . SVG Version: 6.00 Build 0)  -->
<svg version="1.1" id="圖層_1" xmlns="http://www.w3.org/2000/svg" xmlns:xlink="http://www.w3.org/1999/xlink" x="0px" y="0px"
	 viewBox="45 -33.8 150 150" style="enable-background:new 45 -33.8 150 150;" xml:space="preserve">
<style type="text/css">
	.st0{enable-background:new    ;}
	.st1{fill:#DC6200;}
</style>
<g class="st0">
	<path d="M106.1-4.7h65.6v2.6h8v-15.5l3.7-2.1c0.6-0.3,0.9-0.7,0.9-1.2c0-1.4-2.8-4.2-8.5-8.6l-5.7,6.3h-62.7
		c-4.3-2.5-7.6-4.3-9.9-5.3v44.8c0,16.7-0.9,30.9-2.7,42.8c-2.6,16.8-7.7,31.6-15.5,44.2l3,2.3c9-11.3,15.2-23.8,18.6-37.5
		c3.4-13.3,5.1-30.7,5.1-52.1V-4.7z M106.1-19.4h65.6v11h-65.6V-19.4z"/>
	<path d="M178.8,47.4l-4,4.3h-43.4c2.1-2.8,3.7-5.4,4.9-7.8H171v2.6h7.5V30.6l2.9-1.8c0.9-0.6,1.3-1.2,1.3-1.8
		c0-1.2-2.5-3.8-7.6-7.7l-5.1,5.3h-50.2c-1.7-0.9-4.3-2.1-7.9-3.7v27.8h7.6v-4.8h8.3c-5.5,10.7-13.9,20-25.2,27.8l2.3,3
		c4.5-2.7,8.1-5,10.6-6.9v17.7h7.3v-4.9h12v11.4l-6.4,0.3c-4.4,0.2-11.7,0.4-22,0.6c1.4,7.3,2.9,11,4.7,11c1,0,1.9-1.5,2.6-4.5
		c17.3-1.3,31.6-3,43.1-5.1c0.6,1.2,1.1,2.4,1.5,3.6c0.6,2.3,1.8,3.4,3.5,3.4c0.6,0,1.2-0.1,1.8-0.4c4.3,0.7,6.5,2.7,6.5,5.9
		c4.6,0.1,7.7-1.8,9.4-5.7c2.5-5.8,3.8-19.9,3.8-42.3l3-2.3c0.7-0.4,1-0.9,1-1.5C187.2,53.8,184.4,51.3,178.8,47.4z M158.1,28.3h13
		v11.9h-13V28.3z M138.6,28.3h12.5v11.9h-12.5V28.3z M119.6,40.2V28.3h12v11.9H119.6z M134.9,76.8h-12v-8.3h12V76.8z M134.9,64.8
		h-11.1c-0.7-0.4-1.7-1-2.9-1.5c2.7-2.4,5.3-5,7.7-7.8h6.3V64.8z M173.3,91.9c-0.8,3.8-2.9,5.7-6.3,5.7h-1.2l0.1-0.7
		c0.3-5-4.8-9.6-15.2-13.8l-1.6,2.3c2.5,2.1,4.3,4,5.4,5.6c-4.7,0.3-8.8,0.5-12.2,0.7V80.5h13v2.9h7.3V70.4l2.7-2c0.7-0.4,1-1,1-1.6
		c0-1-2.5-3.4-7.5-7.3l-4.8,5.3h-11.7v-3c2.5-1.1,3.8-2,3.8-2.7c0-1.4-3.5-2.6-10.4-3.7h39.8C175.4,72.1,174.6,84.2,173.3,91.9z
		 M142.3,76.8v-8.3h13v8.3H142.3z"/>
	<path class="st1" d="M155.1,17.6H179l1.5-2.4c-2.6-2.5-5.4-4.8-8.3-6.9l-5.3,5.7h-13.5L155.1,17.6z"/>
	<path d="M86.7,71.4V-6.2l3.4-2.6c0.5-0.5,0.7-0.9,0.7-1.2c0-1.4-2.7-4.3-8.2-8.7l-5.1,6.4H65.7c-3.2-1.8-6.2-3.2-8.9-4.3v93.9h8V61
		h14.1v10.4H86.7z M64.8,57.3V-8.4h14.1v65.7H64.8z"/>
	<path class="st1" d="M179.8,4.7c-2.3-2.3-5.1-4.6-8.2-6.7l-4.7,5.4h-13.5l1.5,3.6h23.4L179.8,4.7z"/>
	<path class="st1" d="M111.3,17.6h23.4l1.5-2.4c-2.3-2.6-5-4.9-7.9-6.9l-5,5.7h-13.2L111.3,17.6z"/>
	<path class="st1" d="M136,4.7c-1.3-1.3-4-3.5-7.9-6.6l-4.8,5.3h-13.2l1.2,3.6h23.3L136,4.7z"/>
	<path class="st1" d="M147.9,3.9c2.6-1.1,3.9-2.1,3.9-3.1c0-1.7-3.6-2.6-10.9-2.6v22.8h7V3.9z"/>
</g>
</svg>
