<?xml version="1.0" encoding="utf-8"?>
<!-- Generator: Adobe Illustrator 19.0.0, SVG Export Plug-In . SVG Version: 6.00 Build 0)  -->
<svg version="1.1" id="圖層_1" xmlns="http://www.w3.org/2000/svg" xmlns:xlink="http://www.w3.org/1999/xlink" x="0px" y="0px"
	 viewBox="45 -33.8 150 150" style="enable-background:new 45 -33.8 150 150;" xml:space="preserve">
<style type="text/css">
	.st0{enable-background:new    ;}
	.st1{fill:#DC6200;}
</style>
<g class="st0">
	<path class="st1" d="M172.1,23.3l-4.6,6h-13.8l1.7,3.7h22.3l1.3-2.7C176.5,27.5,174.2,25.2,172.1,23.3z"/>
	<path class="st1" d="M140.2,7.3v26.9h8.1V13.7c3.1-1.2,4.6-2.3,4.6-3.4C153,8.4,148.7,7.4,140.2,7.3z"/>
	<path d="M148.3,88.6V70.7h31.8l1.7-2.7c-2.5-3-5.4-5.8-8.6-8.3l-6.4,7.3h-18.5V54.5h24.9l1.7-2.7c-3.6-4.1-6.3-6.8-8.1-8.2
		l-5.7,7.2h-12.7v-5.7c3.4-1.2,5.1-2.3,5.1-3.3c0-1.9-4.4-3.1-13.3-3.7v12.7h-14.9c0.9-1.7,1.6-3.3,2.1-4.8c3.3-0.7,5-1.6,5-2.5
		c0-1.9-4-3.6-11.9-5.3c-1.5,9.9-4.8,18.3-9.9,25.3l2.5,1.9c3.7-2.9,7-6.5,10.1-10.9h16.9V67h-33.8l1.7,3.7h32.1v17.9H148.3z"/>
	<path d="M73.2,23.5c0.8,2,2.2,3,4.2,3c3.4,0,5.1-1.8,5.1-5.4c0-7.4-7.4-13.8-22.3-19l-1.9,2.7C65.1,9.7,70,15.9,73.2,23.5z"/>
	<path class="st1" d="M125.8,16.2h-14.2l1.6,3.7h21.9l1.8-2.9c-2.4-2.7-4.7-4.9-6.9-6.7L125.8,16.2z"/>
	<path class="st1" d="M172.3,10.6l-4.6,5.6h-15l1.7,3.7h23.4l1.5-2.9C177.3,15,175,12.8,172.3,10.6z"/>
	<path d="M80.7-6.5C82-3.5,83.7-2,85.9-2c3.2,0,4.8-1.8,4.8-5.3c0-7.3-7.7-13.8-23.2-19.3l-2,2.7C72.7-18.8,77.7-13,80.7-6.5z"/>
	<path d="M91.1,79.3c12-14.8,18-37.2,18-66.9V2.6h58v5.6h8v-21.5l3.4-2.1c1-0.5,1.5-1.2,1.5-1.9c0-1.3-3-4.3-8.9-9l-5.4,6.4h-55.5
		c-3.5-2-6.7-3.6-9.6-4.8v36.6c0,28.8-4.3,50.5-12.9,65.1L91.1,79.3z M109.2-16.1h58v15h-58V-16.1z"/>
	<path class="st1" d="M129.6,23.3l-4.7,6H112l1.5,3.7h21l1.5-2.9C134.2,27.7,132.1,25.4,129.6,23.3z"/>
	<path d="M144.9,93.6c-33.5,0-53.9-5.7-61.1-17.1V51.2l3.6-2.1c1-0.5,1.5-1.2,1.5-1.9c0-1.6-3-4.6-8.9-9.2l-5.7,6.9H53.5l1.3,3.7
		h20.9v31.6c-6.3,4.8-14,9.4-23.1,13.7c3.9,7.4,6.8,11.1,8.8,11.1c1.3,0,2-2,2-6c8-7.2,14-13.4,18-18.6c4,6.9,10.3,11.9,18.9,15
		c11,4,29.3,6,55.1,6h28.1c1.2-4.4,2.7-7.8,4.5-10.2C172.6,92.8,158.2,93.6,144.9,93.6z"/>
</g>
</svg>
