<?xml version="1.0" encoding="utf-8"?>
<!-- Generator: Adobe Illustrator 19.0.0, SVG Export Plug-In . SVG Version: 6.00 Build 0)  -->
<svg version="1.1" id="圖層_1" xmlns="http://www.w3.org/2000/svg" xmlns:xlink="http://www.w3.org/1999/xlink" x="0px" y="0px"
	 viewBox="45 -33.8 150 150" style="enable-background:new 45 -33.8 150 150;" xml:space="preserve">
<style type="text/css">
	.st0{enable-background:new    ;}
	.st1{fill:#DC6200;}
</style>
<g class="st0">
	<path class="st1" d="M169.1,54.3c-0.4-0.3-0.8-0.5-1-0.7l-7,6.9H133l1.7,3.7h41.4l2-3c-2.7-2.7-5.5-4.9-8.4-6.6
		C169.6,54.6,169.4,54.5,169.1,54.3z"/>
	<path class="st1" d="M132.9,45.1l1.7,3.7H176l1.5-3c-3-2.8-6.1-5.3-9.3-7.5l-6.6,6.7H132.9z"/>
	<path class="st1" d="M124,42.4c3.8-1.5,5.7-2.9,5.7-4.2c0-2.1-4.9-3.3-14.7-3.7v33.9h9V42.4z"/>
	<path d="M176.2,68.2l-8.3,8.3H124v-8h-9v8H53l1.3,3.7h60.6v25h9v-25h61.2l2-3C184.1,74.2,180.5,71.2,176.2,68.2z"/>
	<path class="st1" d="M104.3,64.3l1.8-3c-3.4-3.2-6.5-5.8-9.3-7.6l-6.4,6.9H63l1.2,3.7H104.3z"/>
	<path class="st1" d="M104,48.8l1.7-2.7c-2.9-3.4-5.8-6-8.7-7.8l-6,6.7H63l1.2,3.7H104z"/>
	<path d="M84.3,29.9h70v5.6h8.6V-5.7l3.6-2.3c1-0.5,1.5-1.2,1.5-1.9c0-1.4-3.3-4.3-9.8-8.7l-5.4,6.3h-37.1c2.6-2.8,4.8-5.7,6.7-8.9
		c4.4-0.6,6.6-1.5,6.6-2.7c0-2.1-4.8-4.1-14.4-6c-0.8,6.3-2.1,12.1-3.9,17.6H85.8c-4.2-2.2-7.6-3.8-10.2-4.8v53.5h8.7V29.9z
		 M84.3-8.6h70V6.3h-70V-8.6z M84.3,10h70v16.2h-70V10z"/>
</g>
</svg>
